<?xml version="1.0" standalone="no"?>
<!DOCTYPE svg PUBLIC "-//W3C//DTD SVG 20010904//EN"
 "http://www.w3.org/TR/2001/REC-SVG-20010904/DTD/svg10.dtd">
<svg version="1.0" xmlns="http://www.w3.org/2000/svg"
 width="160.000000pt" height="160.000000pt" viewBox="0 0 160.000000 160.000000"
 preserveAspectRatio="xMidYMid meet">
<metadata>
Created by potrace 1.16, written by Peter Selinger 2001-2019
</metadata>
<g transform="translate(0.000000,160.000000) scale(0.100000,-0.100000)"
fill="#000000" stroke="none">
<path d="M749 1197 c-20 -12 -75 -53 -123 -91 -70 -56 -86 -74 -86 -96 0 -33
21 -53 46 -44 11 4 60 40 111 81 51 40 97 73 103 73 6 0 52 -33 103 -73 51
-41 100 -77 111 -81 25 -9 46 11 46 43 0 22 -17 41 -92 102 -89 71 -150 110
-172 108 -6 0 -27 -10 -47 -22z"/>
<path d="M745 985 c-22 -22 -25 -32 -25 -104 l0 -80 -61 -36 c-33 -19 -65 -35
-72 -35 -7 0 -104 -53 -217 -117 -217 -125 -234 -140 -195 -183 21 -24 7 -30
343 162 134 76 253 144 265 149 19 9 65 -14 320 -160 166 -95 305 -167 313
-164 16 6 29 46 21 67 -6 15 -404 246 -424 246 -7 0 -39 16 -72 35 l-61 36 0
80 c0 72 -3 82 -25 104 -15 16 -36 25 -55 25 -19 0 -40 -9 -55 -25z"/>
<path d="M745 395 c-25 -24 -25 -27 -25 -195 l0 -170 80 0 80 0 0 170 c0 168
0 171 -25 195 -15 16 -36 25 -55 25 -19 0 -40 -9 -55 -25z"/>
<path d="M474 330 c-46 -18 -54 -46 -54 -177 l0 -123 85 0 85 0 0 124 c0 115
-2 127 -22 150 -26 29 -63 39 -94 26z"/>
<path d="M1064 330 c-46 -18 -54 -46 -54 -177 l0 -123 85 0 85 0 0 124 c0 115
-2 127 -22 150 -26 29 -63 39 -94 26z"/>
</g>
</svg>
